<svg width="32" height="23" viewBox="0 0 32 23" fill="none" xmlns="http://www.w3.org/2000/svg">
<path d="M5.75138 20.3438C6.32502 20.3438 6.79004 19.7981 6.79004 19.125C6.79004 18.4519 6.32502 17.9062 5.75138 17.9062C5.17774 17.9062 4.71271 18.4519 4.71271 19.125C4.71271 19.7981 5.17774 20.3438 5.75138 20.3438Z" fill="#1B262C" fill-opacity="0.7"/>
<path d="M23.4087 20.3438C23.9824 20.3438 24.4474 19.7981 24.4474 19.125C24.4474 18.4519 23.9824 17.9062 23.4087 17.9062C22.8351 17.9062 22.3701 18.4519 22.3701 19.125C22.3701 19.7981 22.8351 20.3438 23.4087 20.3438Z" fill="#1B262C" fill-opacity="0.7"/>
<path d="M30.6794 0.234375H9.90605C9.76831 0.234375 9.63622 0.298576 9.53882 0.412856C9.44143 0.527136 9.38671 0.682134 9.38671 0.84375V5.10937H4.19337C4.0937 5.10941 3.99614 5.14309 3.91234 5.20641C3.82854 5.26973 3.76204 5.36001 3.72078 5.46647L1.1241 12.1696V12.1769C1.0942 12.2539 1.07829 12.3373 1.07736 12.4219V17.2969H0.55803C0.420294 17.2969 0.2882 17.3611 0.190806 17.4754C0.0934117 17.5896 0.0386963 17.7446 0.0386963 17.9062V19.125C0.0386963 19.6098 0.202843 20.0748 0.495025 20.4177C0.787207 20.7605 1.18349 20.9531 1.5967 20.9531H3.05707C3.32964 21.5088 3.7222 21.9703 4.19522 22.2913C4.66823 22.6122 5.20498 22.7812 5.75137 22.7812C6.29777 22.7812 6.83452 22.6122 7.30753 22.2913C7.78054 21.9703 8.17311 21.5088 8.44568 20.9531H20.7144C20.987 21.5088 21.3796 21.9703 21.8526 22.2913C22.3256 22.6122 22.8623 22.7812 23.4087 22.7812C23.9551 22.7812 24.4919 22.6122 24.9649 22.2913C25.4379 21.9703 25.8305 21.5088 26.103 20.9531H28.6021C29.0153 20.9531 29.4116 20.7605 29.7038 20.4177C29.9959 20.0748 30.1601 19.6098 30.1601 19.125V18.5156H30.6794C30.8172 18.5156 30.9492 18.4514 31.0466 18.3371C31.144 18.2229 31.1987 18.0679 31.1987 17.9062V0.84375C31.1987 0.682134 31.144 0.527136 31.0466 0.412856C30.9492 0.298576 30.8172 0.234375 30.6794 0.234375ZM10.4254 1.45312H30.1601V14.8594H10.4254V1.45312ZM20.7144 17.2969H10.4254V16.0781H21.6897C21.2893 16.3912 20.9556 16.8082 20.7144 17.2969ZM4.52782 6.32812H7.30937V11.8125H2.40322L4.52782 6.32812ZM2.11603 13.0312H7.82871C7.96645 13.0312 8.09854 12.967 8.19593 12.8528C8.29333 12.7385 8.34804 12.5835 8.34804 12.4219V6.32812H9.38671V17.2969H8.44568C8.17311 16.7412 7.78054 16.2797 7.30753 15.9587C6.83452 15.6378 6.29777 15.4688 5.75137 15.4688C5.20498 15.4688 4.66823 15.6378 4.19522 15.9587C3.7222 16.2797 3.32964 16.7412 3.05707 17.2969H2.11603V13.0312ZM1.5967 19.7344C1.45896 19.7344 1.32687 19.6702 1.22947 19.5559C1.13208 19.4416 1.07736 19.2866 1.07736 19.125V18.5156H2.68211C2.61978 18.9186 2.61978 19.3314 2.68211 19.7344H1.5967ZM5.75137 21.5625C5.34051 21.5625 4.93888 21.4195 4.59727 21.1517C4.25565 20.8839 3.98939 20.5032 3.83216 20.0578C3.67493 19.6124 3.6338 19.1223 3.71395 18.6495C3.79411 18.1766 3.99195 17.7423 4.28247 17.4014C4.57299 17.0605 4.94314 16.8284 5.3461 16.7343C5.74907 16.6403 6.16675 16.6886 6.54634 16.873C6.92592 17.0575 7.25035 17.3699 7.47861 17.7708C7.70688 18.1716 7.82871 18.6429 7.82871 19.125C7.82871 19.7715 7.60985 20.3914 7.22027 20.8486C6.8307 21.3057 6.30232 21.5625 5.75137 21.5625ZM8.82064 19.7344C8.88296 19.3314 8.88296 18.9186 8.82064 18.5156H20.3395C20.2771 18.9186 20.2771 19.3314 20.3395 19.7344H8.82064ZM23.4087 21.5625C22.9979 21.5625 22.5962 21.4195 22.2546 21.1517C21.913 20.8839 21.6468 20.5032 21.4895 20.0578C21.3323 19.6124 21.2912 19.1223 21.3713 18.6495C21.4515 18.1766 21.6493 17.7423 21.9398 17.4014C22.2304 17.0605 22.6005 16.8284 23.0035 16.7343C23.4064 16.6403 23.8241 16.6886 24.2037 16.873C24.5833 17.0575 24.9077 17.3699 25.136 17.7708C25.3642 18.1716 25.4861 18.6429 25.4861 19.125C25.4861 19.7715 25.2672 20.3914 24.8776 20.8486C24.4881 21.3057 23.9597 21.5625 23.4087 21.5625ZM29.1214 19.125C29.1214 19.2866 29.0667 19.4416 28.9693 19.5559C28.8719 19.6702 28.7398 19.7344 28.6021 19.7344H26.478C26.5403 19.3314 26.5403 18.9186 26.478 18.5156H29.1214V19.125ZM30.1601 17.2969H26.103C25.8619 16.8082 25.5282 16.3912 25.1277 16.0781H30.1601V17.2969Z" fill="#1B262C" fill-opacity="0.7"/>
<path d="M13.5414 11.2031C13.6791 11.2031 13.8112 11.1389 13.9086 11.0246C14.006 10.9104 14.0607 10.7554 14.0607 10.5938V8.76562H15.0994C15.2371 8.76562 15.3692 8.70142 15.4666 8.58714C15.564 8.47286 15.6187 8.31787 15.6187 8.15625C15.6187 7.99463 15.564 7.83964 15.4666 7.72536C15.3692 7.61108 15.2371 7.54688 15.0994 7.54688H14.0607V6.32812H15.6187C15.7564 6.32812 15.8885 6.26392 15.9859 6.14964C16.0833 6.03536 16.138 5.88037 16.138 5.71875C16.138 5.55713 16.0833 5.40214 15.9859 5.28786C15.8885 5.17358 15.7564 5.10938 15.6187 5.10938H13.5414C13.4036 5.10938 13.2715 5.17358 13.1741 5.28786C13.0767 5.40214 13.022 5.55713 13.022 5.71875V10.5938C13.022 10.7554 13.0767 10.9104 13.1741 11.0246C13.2715 11.1389 13.4036 11.2031 13.5414 11.2031Z" fill="#1B262C" fill-opacity="0.7"/>
<path d="M17.1767 11.2031C17.3145 11.2031 17.4466 11.1389 17.544 11.0246C17.6414 10.9104 17.6961 10.7554 17.6961 10.5937V9.17207L18.8386 10.9594C18.8795 11.0234 18.9308 11.0773 18.9895 11.1181C19.0482 11.1589 19.1131 11.1857 19.1806 11.197C19.2481 11.2083 19.3169 11.2039 19.383 11.184C19.449 11.1642 19.5111 11.1293 19.5657 11.0812C19.6202 11.0332 19.6662 10.9731 19.7009 10.9042C19.7357 10.8354 19.7585 10.7591 19.7682 10.6799C19.7778 10.6007 19.7741 10.52 19.7572 10.4425C19.7402 10.365 19.7105 10.2921 19.6695 10.2281L18.6766 8.67482C19.0323 8.54605 19.3367 8.27174 19.5346 7.90179C19.7325 7.53185 19.8106 7.09085 19.7547 6.65903C19.6989 6.22722 19.5128 5.83327 19.2303 5.54887C18.9478 5.26447 18.5876 5.10851 18.2154 5.10937H17.1767C17.039 5.10937 16.9069 5.17357 16.8095 5.28785C16.7121 5.40213 16.6574 5.55713 16.6574 5.71875V10.5937C16.6574 10.7554 16.7121 10.9104 16.8095 11.0246C16.9069 11.1389 17.039 11.2031 17.1767 11.2031ZM18.7347 6.93749C18.7347 7.09911 18.68 7.25411 18.5826 7.36839C18.4852 7.48267 18.3531 7.54687 18.2154 7.54687H17.6961V6.32812H18.2154C18.3531 6.32812 18.4852 6.39232 18.5826 6.5066C18.68 6.62088 18.7347 6.77588 18.7347 6.93749Z" fill="#1B262C" fill-opacity="0.7"/>
<path d="M21.3314 11.2031H23.4087C23.5465 11.2031 23.6786 11.1389 23.776 11.0246C23.8734 10.9104 23.9281 10.7554 23.9281 10.5938C23.9281 10.4321 23.8734 10.2771 23.776 10.1629C23.6786 10.0486 23.5465 9.98438 23.4087 9.98438H21.8507V8.76562H22.8894C23.0271 8.76562 23.1592 8.70142 23.2566 8.58714C23.354 8.47286 23.4087 8.31787 23.4087 8.15625C23.4087 7.99463 23.354 7.83964 23.2566 7.72536C23.1592 7.61108 23.0271 7.54688 22.8894 7.54688H21.8507V6.32812H23.4087C23.5465 6.32812 23.6786 6.26392 23.776 6.14964C23.8734 6.03536 23.9281 5.88037 23.9281 5.71875C23.9281 5.55713 23.8734 5.40214 23.776 5.28786C23.6786 5.17358 23.5465 5.10938 23.4087 5.10938H21.3314C21.1937 5.10938 21.0616 5.17358 20.9642 5.28786C20.8668 5.40214 20.8121 5.55713 20.8121 5.71875V10.5938C20.8121 10.7554 20.8668 10.9104 20.9642 11.0246C21.0616 11.1389 21.1937 11.2031 21.3314 11.2031Z" fill="#1B262C" fill-opacity="0.7"/>
<path d="M24.9667 11.2031H27.0441C27.1818 11.2031 27.3139 11.1389 27.4113 11.0246C27.5087 10.9104 27.5634 10.7554 27.5634 10.5938C27.5634 10.4321 27.5087 10.2771 27.4113 10.1629C27.3139 10.0486 27.1818 9.98438 27.0441 9.98438H25.4861V8.76562H26.5247C26.6625 8.76562 26.7946 8.70142 26.8919 8.58714C26.9893 8.47286 27.0441 8.31787 27.0441 8.15625C27.0441 7.99463 26.9893 7.83964 26.8919 7.72536C26.7946 7.61108 26.6625 7.54688 26.5247 7.54688H25.4861V6.32812H27.0441C27.1818 6.32812 27.3139 6.26392 27.4113 6.14964C27.5087 6.03536 27.5634 5.88037 27.5634 5.71875C27.5634 5.55713 27.5087 5.40214 27.4113 5.28786C27.3139 5.17358 27.1818 5.10938 27.0441 5.10938H24.9667C24.829 5.10938 24.6969 5.17358 24.5995 5.28786C24.5021 5.40214 24.4474 5.55713 24.4474 5.71875V10.5938C24.4474 10.7554 24.5021 10.9104 24.5995 11.0246C24.6969 11.1389 24.829 11.2031 24.9667 11.2031Z" fill="#1B262C" fill-opacity="0.7"/>
</svg>
