<svg width="31" height="31" viewBox="0 0 31 31" fill="none" xmlns="http://www.w3.org/2000/svg">
<path d="M30.3412 17.6237H30.0286C29.8823 15.074 28.6635 12.845 26.8714 11.4954C26.9015 11.411 26.9186 11.3191 26.9186 11.2227V1.91608C26.9186 0.85955 26.149 0 25.2029 0H1.71567C0.769645 0 0 0.85955 0 1.91608V18.3214C0 19.3779 0.769645 20.2375 1.71567 20.2375H14.7435V29.3953C14.7435 30.2801 15.3881 31 16.1804 31H29.5631C30.3554 31 31 30.2801 31 29.3953V18.3595C31.0001 17.9531 30.705 17.6237 30.3412 17.6237ZM28.708 17.6237H27.7905C27.5561 14.8227 25.44 12.6229 22.8717 12.6229C20.3035 12.6229 18.1874 14.8228 17.9529 17.6237H17.0355C17.2725 14.2594 19.7995 11.6028 22.8717 11.6028C25.944 11.6028 28.471 14.2594 28.708 17.6237ZM26.4646 17.6237H19.2789C19.5073 15.636 21.0308 14.0945 22.8717 14.0945C24.7126 14.0945 26.2362 15.6359 26.4646 17.6237ZM1.31767 4.93096H25.6009V7.6396H1.31767V4.93096ZM1.71567 1.47159H25.2029C25.4224 1.47159 25.6009 1.67096 25.6009 1.91608V3.45936H1.31767V1.91608C1.31767 1.67096 1.49625 1.47159 1.71567 1.47159ZM1.71567 18.766C1.49618 18.766 1.31767 18.5665 1.31767 18.3215V9.11119H25.6009V10.7343C24.7592 10.3461 23.8376 10.1312 22.8717 10.1312C19.0727 10.1312 15.9546 13.4473 15.7148 17.6237H15.4022C15.0384 17.6237 14.7434 17.9531 14.7434 18.3595V18.766H1.71567ZM29.6824 29.3953C29.6824 29.4687 29.6289 29.5284 29.5632 29.5284H16.1804C16.1146 29.5284 16.0611 29.4686 16.0611 29.3953V19.0953H29.6824V29.3953Z" fill="#1B262C" fill-opacity="0.7"/>
<path d="M21.3085 25.5926V27.0968C21.3085 28.0595 22.0098 28.8426 22.8718 28.8426C23.7338 28.8426 24.4351 28.0595 24.4351 27.0968V25.5926C25.2203 25.0119 25.7086 24.0201 25.7086 22.9494C25.7086 21.2024 24.436 19.7811 22.8718 19.7811C21.3075 19.7811 20.0349 21.2024 20.0349 22.9494C20.0349 24.0201 20.5231 25.0119 21.3085 25.5926ZM22.8718 21.2528C23.7095 21.2528 24.3909 22.0139 24.3909 22.9495C24.3909 23.6115 24.0421 24.2173 23.5023 24.493C23.2678 24.6127 23.1174 24.8742 23.1174 25.1622V27.0968C23.1174 27.248 23.0072 27.371 22.8718 27.371C22.7363 27.371 22.6261 27.248 22.6261 27.0968V25.1621C22.6261 24.8742 22.4757 24.6127 22.2413 24.4929C21.7014 24.2173 21.3526 23.6114 21.3526 22.9495C21.3526 22.0139 22.0341 21.2528 22.8718 21.2528Z" fill="#1B262C" fill-opacity="0.7"/>
</svg>
