<svg width="31" height="31" viewBox="0 0 31 31" fill="none" xmlns="http://www.w3.org/2000/svg">
<g clip-path="url(#clip0)">
<path d="M9.18215 13.4495L9.18102 13.4692C9.10465 14.807 9.854 16.0602 11.0906 16.6611L11.1033 16.6673C11.5393 16.8758 11.8966 17.2196 12.1221 17.6471L12.1271 17.6564C12.7502 18.8429 14.039 19.5621 15.4128 19.4899L15.4337 19.4888C15.9319 19.4609 16.4265 19.5894 16.8481 19.8566C18.0115 20.5842 19.4882 20.5842 20.6515 19.8566C21.0731 19.5894 21.5677 19.4609 22.066 19.4888L22.0868 19.4899C23.4584 19.5626 24.7488 18.8429 25.3734 17.6545L25.3764 17.648C25.6027 17.2193 25.9609 16.875 26.3983 16.6661L26.4085 16.6611C27.6451 16.06 28.3947 14.807 28.3181 13.4689L28.3169 13.4503C28.2916 12.9791 28.4223 12.5127 28.6895 12.1235C29.4586 11.0019 29.4586 9.52294 28.6898 8.40103C28.4229 8.01213 28.2916 7.546 28.3169 7.07481L28.3181 7.05508C28.3947 5.71702 27.6451 4.46406 26.4073 3.86267L26.3961 3.85703C25.9609 3.64905 25.6044 3.30692 25.3787 2.88054L25.3722 2.86785C24.7488 1.68141 23.4584 0.962496 22.0868 1.03436L22.0657 1.03549C21.5677 1.06339 21.0731 0.934877 20.6518 0.667716H20.6512C19.4879 -0.0599336 18.0112 -0.0599336 16.8478 0.667716C16.4262 0.934596 15.9317 1.0631 15.4334 1.0352L15.4125 1.03408C14.0407 0.961368 12.7505 1.68113 12.1274 2.86729L12.1226 2.87603C11.8969 3.30439 11.5393 3.64849 11.1027 3.85731L11.0909 3.86295C9.85428 4.46378 9.10465 5.71702 9.1813 7.05508L9.18243 7.07368C9.2078 7.54488 9.07703 8.01128 8.80987 8.40019C8.04079 9.5221 8.04079 11.0014 8.80987 12.123C9.07675 12.5119 9.2078 12.9783 9.18215 13.4495ZM9.75987 9.05569C10.1722 8.45542 10.3742 7.73567 10.3348 7.00858L10.3337 6.98885C10.2931 6.10226 10.7908 5.27879 11.5942 4.902L11.6041 4.89721C12.2632 4.58158 12.8029 4.06191 13.1434 3.41542L13.149 3.40471C13.563 2.61619 14.4301 2.13823 15.3511 2.18727L15.3714 2.18811C16.1084 2.22954 16.8397 2.0396 17.463 1.64449C18.2502 1.15216 19.2489 1.15216 20.036 1.64449C20.6594 2.03903 21.3907 2.22926 22.1274 2.1884L22.1477 2.18727C23.0732 2.1388 23.9361 2.61619 24.3489 3.40246L24.3566 3.41683C24.697 4.06247 25.2361 4.5813 25.8944 4.89665L25.904 4.90144C26.7201 5.29824 27.2156 6.11748 27.1657 6.98913L27.1646 7.00971C27.1251 7.73679 27.3275 8.45627 27.7398 9.05654C28.238 9.78334 28.2377 10.7415 27.7392 11.468C27.3272 12.0686 27.1251 12.7883 27.1646 13.5154L27.1657 13.5349C27.2156 14.4065 26.7201 15.2261 25.9037 15.6231L25.8953 15.6271C25.2355 15.9433 24.6953 16.4635 24.3546 17.1111L24.3504 17.1196C23.9361 17.9081 23.0703 18.3863 22.148 18.337L22.128 18.3359C21.391 18.2948 20.6594 18.485 20.0357 18.8798C19.2489 19.3719 18.2502 19.3719 17.4633 18.8798C16.8963 18.5205 16.2386 18.33 15.5673 18.3305C15.5022 18.3305 15.4368 18.3322 15.3714 18.3359L15.3511 18.3367C14.4423 18.3945 13.5824 17.9188 13.1482 17.1182L13.1422 17.1072C12.8024 16.4618 12.2635 15.9433 11.6055 15.6279L11.5948 15.6226C10.7784 15.2258 10.2829 14.4063 10.3331 13.5349L10.3342 13.5143C10.3734 12.7872 10.171 12.0675 9.75903 11.4675C9.26106 10.7407 9.26134 9.7825 9.75987 9.05626V9.05569Z" fill="#1B262C" fill-opacity="0.7"/>
<path d="M15.0256 16.2288C15.2959 16.3976 15.6518 16.315 15.8206 16.0447L22.6578 5.09167C22.7694 4.91666 22.7787 4.69516 22.6817 4.51169C22.5848 4.32795 22.3965 4.21071 22.1891 4.20423C21.9817 4.19775 21.7867 4.30315 21.6784 4.48041L14.8416 15.4335C14.6728 15.704 14.7551 16.06 15.0256 16.2288Z" fill="#1B262C" fill-opacity="0.7"/>
<path d="M15.6383 10.2906C17.0437 10.2906 18.1873 8.98666 18.1873 7.38397C18.1873 5.78128 17.0437 4.4776 15.6383 4.4776C14.2329 4.4776 13.0895 5.78128 13.0895 7.38397C13.0895 8.98666 14.2329 10.2906 15.6383 10.2906ZM15.6383 5.63192C16.4073 5.63192 17.033 6.41791 17.033 7.38397C17.033 8.35004 16.4073 9.13631 15.6383 9.13631C14.8695 9.13631 14.2438 8.34976 14.2438 7.38397C14.2438 6.41819 14.8695 5.63192 15.6383 5.63192Z" fill="#1B262C" fill-opacity="0.7"/>
<path d="M19.312 13.1409C19.312 14.7436 20.4554 16.0473 21.8608 16.0473C23.2662 16.0473 24.4098 14.7433 24.4098 13.1409C24.4098 11.5388 23.2665 10.2345 21.8611 10.2345C20.4554 10.2345 19.312 11.5379 19.312 13.1409ZM23.2555 13.1409C23.2555 14.107 22.6298 14.893 21.8608 14.893C21.092 14.893 20.4663 14.107 20.4663 13.1409C20.4663 12.1749 21.092 11.3889 21.8608 11.3889C22.6298 11.3889 23.2555 12.1743 23.2555 13.1409Z" fill="#1B262C" fill-opacity="0.7"/>
<path d="M30.9251 22.7249C30.1609 21.3685 28.466 20.852 27.0753 21.5514L22.5541 23.6876C21.9298 22.5268 20.7324 21.7879 19.4146 21.7507L15.2409 21.6357C14.5801 21.6168 13.9316 21.4491 13.344 21.1459L12.9193 20.9258C10.7448 19.7923 8.15296 19.7952 5.98071 20.9331L6.0072 19.971C6.01594 19.6523 5.76484 19.3868 5.44611 19.3781L0.869405 19.2521C0.55067 19.2434 0.285481 19.4945 0.276744 19.8132L0.000282262 29.8568C-0.00845409 30.1756 0.242645 30.441 0.561379 30.4498L5.13808 30.5758H5.15415C5.46668 30.5755 5.72229 30.3266 5.73102 30.0144L5.74399 29.5339L6.93297 28.8973C7.39966 28.6462 7.94554 28.5864 8.45535 28.7307L15.5552 30.7234C15.5676 30.7271 15.58 30.7299 15.5926 30.7327C16.1058 30.8401 16.6289 30.8939 17.1533 30.8936C18.2637 30.8942 19.3611 30.6549 20.3703 30.1916C20.3951 30.1804 20.419 30.1674 20.4419 30.1527L30.736 23.4937C30.9928 23.328 31.0756 22.9907 30.9251 22.7249ZM1.1701 29.3115L1.41472 20.4222L4.83767 20.5163L4.59277 29.4059L1.1701 29.3115ZM19.85 29.1602C18.5962 29.7261 17.1959 29.8822 15.8482 29.6066L8.76732 27.6195C7.97062 27.3941 7.11728 27.4876 6.38822 27.8796L5.78062 28.2048L5.94351 22.2943C7.8686 21.0137 10.3379 20.8821 12.3884 21.9505L12.8131 22.1706C13.5554 22.5539 14.3743 22.7655 15.2094 22.7895L19.3831 22.9044C20.5554 22.938 21.5511 23.7727 21.7889 24.9214L15.5721 24.7503C15.2533 24.7416 14.9881 24.9927 14.9794 25.3114C14.9707 25.6302 15.2218 25.8956 15.5405 25.9044L22.4013 26.0932H22.4177C22.7299 26.0929 22.9855 25.8441 22.9943 25.5318C23.0013 25.281 22.9824 25.0299 22.9385 24.783L27.5749 22.5919L27.5884 22.5854C28.2462 22.2523 29.0418 22.3636 29.5826 22.8644L19.85 29.1602Z" fill="#1B262C" fill-opacity="0.7"/>
</g>
<defs>
<clipPath id="clip0">
<rect width="31" height="31" fill="white"/>
</clipPath>
</defs>
</svg>
