<svg width="31" height="31" viewBox="0 0 31 31" fill="none" xmlns="http://www.w3.org/2000/svg">
<g clip-path="url(#clip0)">
<path d="M5.45229 7.02651C5.0183 7.02651 4.60109 6.91819 4.23095 6.71479C2.28115 9.21424 1.21094 12.3192 1.21094 15.5C1.21094 23.3791 7.62086 29.7891 15.5 29.7891C16.4579 29.7891 17.4153 29.6937 18.3457 29.5057C18.673 29.4395 18.9928 29.6514 19.059 29.9792C19.1252 30.307 18.9133 30.6263 18.5855 30.6928C17.5763 30.8966 16.5383 31 15.5 31C11.3599 31 7.46737 29.3877 4.53983 26.4602C1.6123 23.5326 0 19.6401 0 15.5C0 12.0174 1.18256 8.61871 3.33552 5.8941C3.05833 5.47997 2.90932 4.99323 2.90932 4.48354C2.90932 3.80428 3.17398 3.1657 3.65434 2.68559C4.13445 2.20523 4.77303 1.94057 5.45229 1.94057C6.13155 1.94057 6.77013 2.20523 7.25049 2.68559C7.73084 3.1657 7.99526 3.80452 7.99526 4.48378C7.99526 5.1628 7.73084 5.80162 7.25049 6.28174C6.77013 6.76209 6.13155 7.02651 5.45229 7.02651ZM6.39408 3.54176C6.14267 3.29011 5.80801 3.15151 5.45229 3.15151C5.09658 3.15151 4.76215 3.29011 4.51051 3.54176C4.25886 3.7934 4.12026 4.12783 4.12026 4.48354C4.12026 4.83949 4.25886 5.17392 4.51051 5.42557C4.76192 5.67722 5.09658 5.81557 5.45229 5.81557C5.80801 5.81557 6.14243 5.67698 6.39408 5.42557C6.64573 5.17392 6.78432 4.83949 6.78432 4.48354C6.78432 4.12783 6.64573 3.7934 6.39408 3.54176Z" fill="#1B262C" fill-opacity="0.7"/>
<path d="M27.664 25.1066C28.3223 26.094 28.2165 27.4441 27.3459 28.3147C26.8656 28.7948 26.227 29.0594 25.5477 29.0594C24.8685 29.0594 24.2299 28.7948 23.7495 28.3147C23.2692 27.8343 23.0048 27.1957 23.0048 26.5165C23.0048 25.8372 23.2692 25.1986 23.7495 24.7183C24.2299 24.2379 24.8685 23.9735 25.5477 23.9735C25.9817 23.9735 26.3989 24.0818 26.7691 24.2852C28.7189 21.7855 29.7891 18.6808 29.7891 15.5C29.7891 7.62086 23.3792 1.21094 15.5 1.21094C14.5516 1.21094 13.6032 1.30436 12.6815 1.48884C12.3537 1.55435 12.0347 1.34173 11.9689 1.01392C11.9034 0.685883 12.116 0.367065 12.4438 0.301315C13.4436 0.101463 14.4719 0 15.5 0C19.6402 0 23.5327 1.6123 26.4602 4.53983C29.3877 7.46737 31 11.3599 31 15.5C31 18.9829 29.8172 22.3818 27.664 25.1066ZM24.6059 25.5744C24.3543 25.8261 24.2157 26.1605 24.2157 26.5165C24.2157 26.8722 24.3543 27.2066 24.6059 27.4582C24.8574 27.7099 25.192 27.8485 25.5477 27.8485C25.9034 27.8485 26.2381 27.7099 26.4898 27.4582C27.0089 26.9389 27.0089 26.0938 26.4898 25.5744C26.2381 25.323 25.9034 25.1844 25.5477 25.1844C25.1918 25.1844 24.8574 25.323 24.6059 25.5744Z" fill="#1B262C" fill-opacity="0.7"/>
<path d="M13.0015 5.08594C13.0015 4.75151 13.2728 4.48047 13.607 4.48047H17.3928C17.7272 4.48047 17.9983 4.75151 17.9983 5.08594V6.25974C18.7944 6.47402 19.5555 6.78953 20.2707 7.20153L21.0994 6.3728C21.2129 6.25927 21.3669 6.19541 21.5277 6.19541C21.6881 6.19541 21.8423 6.25927 21.9558 6.37303L24.6317 9.05081C24.868 9.28732 24.868 9.67071 24.6317 9.90698L23.8039 10.7348C24.2159 11.45 24.5314 12.2111 24.7457 13.0072H25.915C26.2494 13.0072 26.5205 13.2782 26.5205 13.6126V17.3985C26.5205 17.7329 26.2494 18.0039 25.915 18.0039H24.7455C24.5312 18.7998 24.2159 19.5609 23.8039 20.2761L24.6272 21.0994C24.7407 21.2129 24.8046 21.3671 24.8046 21.5277C24.8044 21.6883 24.7405 21.8425 24.627 21.956L21.949 24.6319C21.7127 24.8682 21.3293 24.8682 21.0928 24.6317L20.2707 23.8093C19.5555 24.2214 18.7944 24.5369 17.9983 24.7511V25.9141C17.9983 26.2485 17.7272 26.5195 17.3928 26.5195H13.607C13.2728 26.5195 13.0015 26.2485 13.0015 25.9141V24.7509C12.2056 24.5369 11.4445 24.2214 10.7293 23.8093L9.90698 24.6317C9.67071 24.868 9.28732 24.8682 9.05081 24.6319L6.37303 21.9558C6.25927 21.8423 6.19541 21.6883 6.19541 21.5277C6.19541 21.3671 6.25927 21.2129 6.3728 21.0994L7.19609 20.2761C6.78409 19.5609 6.46858 18.8 6.2543 18.0039H5.08712C4.75269 18.0039 4.48165 17.7329 4.48165 17.3987L4.47952 13.6129C4.47929 13.4523 4.54314 13.2981 4.65667 13.1846C4.7702 13.071 4.92416 13.0072 5.08499 13.0072H6.2543C6.46858 12.2111 6.78409 11.45 7.19609 10.7348L6.3683 9.90698C6.13203 9.67071 6.13179 9.28732 6.3683 9.05081L9.04419 6.37303C9.15772 6.25951 9.31168 6.19541 9.47228 6.19541H9.47251C9.6331 6.19541 9.78707 6.25927 9.9006 6.3728L10.7291 7.20153C11.4445 6.78953 12.2056 6.47402 13.0015 6.25974V5.08594ZM10.9666 8.47491C10.727 8.62982 10.4117 8.59624 10.2097 8.39449L9.47251 7.65729L7.65256 9.47866L8.38905 10.2154C8.5908 10.4171 8.62438 10.7324 8.46947 10.972C7.92053 11.8215 7.53454 12.7527 7.32262 13.7399C7.26255 14.0187 7.01611 14.2181 6.73064 14.2181H5.6907L5.69212 16.793H6.73064C7.01611 16.793 7.26255 16.9921 7.32262 17.2712C7.53454 18.2582 7.92053 19.1893 8.46947 20.0389C8.62438 20.2785 8.5908 20.5937 8.38905 20.7955L7.65729 21.5275L9.47866 23.3474L10.2097 22.6161C10.4117 22.4144 10.7267 22.3811 10.9666 22.5357C11.8159 23.0847 12.747 23.4707 13.7342 23.6826C14.0131 23.7427 14.2124 23.9893 14.2124 24.2746V25.3086H16.7873V24.2748C16.7873 23.9893 16.9865 23.7427 17.2656 23.6828C18.2525 23.4707 19.1839 23.0849 20.0332 22.536C20.2728 22.3811 20.5881 22.4144 20.7898 22.6164L21.5211 23.3474L23.3425 21.5275L22.6107 20.7957C22.4087 20.5937 22.3754 20.2785 22.5303 20.0389C23.0792 19.1893 23.465 18.2582 23.6771 17.2712C23.737 16.9921 23.9837 16.793 24.2691 16.793H25.3095V14.2181H24.2691C23.9837 14.2181 23.7372 14.0187 23.6771 13.7399C23.4652 12.7529 23.0792 11.8215 22.5303 10.9722C22.3754 10.7324 22.409 10.4171 22.6107 10.2154L23.3472 9.4789L21.5273 7.65752L20.79 8.39449C20.5881 8.59647 20.2728 8.62982 20.0332 8.47491C19.1837 7.92596 18.2525 7.54021 17.2656 7.32806C16.9865 7.26799 16.7873 7.02155 16.7873 6.73608V5.69141H14.2124V6.73608C14.2124 7.02131 14.0131 7.26799 13.7342 7.32806C12.7472 7.53998 11.8161 7.92596 10.9666 8.47491Z" fill="#1B262C" fill-opacity="0.7"/>
<path d="M20.5029 15.5C20.5029 18.2587 18.2587 20.5029 15.5 20.5029C12.7413 20.5029 10.4971 18.2587 10.4971 15.5C10.4971 12.7413 12.7413 10.4971 15.5 10.4971C18.2587 10.4971 20.5029 12.7413 20.5029 15.5ZM11.708 15.5C11.708 17.591 13.409 19.292 15.5 19.292C17.591 19.292 19.292 17.5908 19.292 15.5C19.292 13.4092 17.591 11.708 15.5 11.708C13.409 11.708 11.708 13.409 11.708 15.5Z" fill="#1B262C" fill-opacity="0.7"/>
<path d="M21.075 28.7101C21.2345 28.7101 21.3905 28.7749 21.5031 28.8875C21.6157 29.0008 21.6805 29.1569 21.6805 29.3163C21.6805 29.4747 21.6159 29.6311 21.5031 29.7444C21.3905 29.8569 21.2345 29.9217 21.075 29.9217C20.9152 29.9217 20.7598 29.8569 20.6472 29.7444C20.5344 29.6311 20.4696 29.4754 20.4696 29.3163C20.4696 29.1564 20.5344 29.0008 20.6472 28.8875C20.7598 28.7749 20.9152 28.7101 21.075 28.7101Z" fill="#1B262C" fill-opacity="0.7"/>
<path d="M9.95145 2.27902C9.79227 2.27902 9.63594 2.21422 9.52336 2.10164C9.41078 1.98906 9.34598 1.83273 9.34598 1.67355C9.34598 1.51367 9.41078 1.35805 9.52336 1.24547C9.63594 1.13289 9.79227 1.06808 9.95145 1.06808C10.1106 1.06808 10.267 1.13289 10.3795 1.24547C10.4921 1.35805 10.5569 1.51438 10.5569 1.67355C10.5569 1.83273 10.4921 1.98906 10.3795 2.10164C10.267 2.21422 10.1106 2.27902 9.95145 2.27902Z" fill="#1B262C" fill-opacity="0.7"/>
</g>
<defs>
<clipPath id="clip0">
<rect width="31" height="31" fill="white" transform="matrix(1 0 0 -1 0 31)"/>
</clipPath>
</defs>
</svg>
